<svg width="28" height="20" viewBox="0 0 28 20" fill="none" xmlns="http://www.w3.org/2000/svg">
<rect width="28" height="20" rx="2" fill="white"/>
<mask id="mask0_60_2434" style="mask-type:luminance" maskUnits="userSpaceOnUse" x="0" y="0" width="28" height="20">
<rect width="28" height="20" rx="2" fill="white"/>
</mask>
<g mask="url(#mask0_60_2434)">
<rect width="28" height="20" fill="#0A17A7"/>
<path fill-rule="evenodd" clip-rule="evenodd" d="M-1.2825 -1.91644L10.6666 6.14335L10.6666 -1.33333L17.3333 -1.33333V6.14335L29.2824 -1.91644L30.7736 0.294324L21.3262 6.66667L28 6.66667L28 13.3333L21.3262 13.3333L30.7736 19.7057L29.2824 21.9165L17.3333 13.8567V21.3333H10.6666L10.6666 13.8567L-1.2825 21.9165L-2.77368 19.7057L6.67371 13.3333L-3.14713e-05 13.3333L-3.14713e-05 6.66667L6.67371 6.66667L-2.77368 0.294324L-1.2825 -1.91644Z" fill="white"/>
<path d="M18.668 6.33219L31.3333 -2" stroke="#DB1F35" stroke-width="0.666667" stroke-linecap="round"/>
<path d="M20.0128 13.6975L31.3667 21.3503" stroke="#DB1F35" stroke-width="0.666667" stroke-linecap="round"/>
<path d="M8.00549 6.31046L-3.83752 -1.67099" stroke="#DB1F35" stroke-width="0.666667" stroke-linecap="round"/>
<path d="M9.29 13.6049L-3.83752 22.3105" stroke="#DB1F35" stroke-width="0.666667" stroke-linecap="round"/>
<path fill-rule="evenodd" clip-rule="evenodd" d="M0 12L12 12L12 20H16V12L28 12L28 8L16 8V0L12 0L12 8L0 8L0 12Z" fill="#E6273E"/>
</g>
</svg>
