<svg width="25" height="24" viewBox="0 0 25 24" fill="none" xmlns="http://www.w3.org/2000/svg">
<path d="M3.5 3H5.5V17C5.5 17.2652 5.60536 17.5196 5.79289 17.7071C5.98043 17.8946 6.23478 18 6.5 18H18.5C18.7151 18 18.9245 17.9307 19.0971 17.8022C19.2697 17.6738 19.3963 17.4931 19.458 17.287L22.458 7.287C22.5027 7.13769 22.5119 6.97999 22.4849 6.82649C22.4579 6.67298 22.3953 6.52793 22.3022 6.4029C22.2092 6.27786 22.0882 6.17632 21.9489 6.10637C21.8096 6.03641 21.6559 5.99999 21.5 6H7.5V2C7.5 1.73478 7.39464 1.48043 7.20711 1.29289C7.01957 1.10536 6.76522 1 6.5 1H3.5C3.23478 1 2.98043 1.10536 2.79289 1.29289C2.60536 1.48043 2.5 1.73478 2.5 2C2.5 2.26522 2.60536 2.51957 2.79289 2.70711C2.98043 2.89464 3.23478 3 3.5 3ZM7.5 8H20.156L17.756 16H7.5V8ZM7 19C7.29667 19 7.58668 19.088 7.83336 19.2528C8.08003 19.4176 8.27229 19.6519 8.38582 19.926C8.49935 20.2001 8.52906 20.5017 8.47118 20.7926C8.4133 21.0836 8.27044 21.3509 8.06066 21.5607C7.85088 21.7704 7.58361 21.9133 7.29264 21.9712C7.00166 22.0291 6.70006 21.9993 6.42597 21.8858C6.15189 21.7723 5.91762 21.58 5.7528 21.3334C5.58797 21.0867 5.5 20.7967 5.5 20.5C5.5 20.1022 5.65804 19.7206 5.93934 19.4393C6.22064 19.158 6.60218 19 7 19ZM17 19C17.2967 19 17.5867 19.088 17.8334 19.2528C18.08 19.4176 18.2723 19.6519 18.3858 19.926C18.4993 20.2001 18.5291 20.5017 18.4712 20.7926C18.4133 21.0836 18.2704 21.3509 18.0607 21.5607C17.8509 21.7704 17.5836 21.9133 17.2926 21.9712C17.0017 22.0291 16.7001 21.9993 16.426 21.8858C16.1519 21.7723 15.9176 21.58 15.7528 21.3334C15.588 21.0867 15.5 20.7967 15.5 20.5C15.5 20.1022 15.658 19.7206 15.9393 19.4393C16.2206 19.158 16.6022 19 17 19Z" fill="#212324"/>
</svg>
