<svg width="36" height="36" viewBox="0 0 36 36" fill="none" xmlns="http://www.w3.org/2000/svg">
<path d="M14.4 28.125C10.8 28.125 7.875 25.2 7.875 21.6C7.875 18.66 9.85503 16.065 12.69 15.3C13.245 15.15 13.815 15.435 14.025 15.975C14.52 17.22 15.585 18.18 16.875 18.525C17.58 18.72 18.42 18.72 19.125 18.525C19.68 18.375 20.265 18.66 20.475 19.185C20.775 19.95 20.925 20.76 20.925 21.585C20.925 23.445 20.13 25.215 18.75 26.445C17.565 27.525 16.02 28.125 14.4 28.125ZM12.435 17.805C11.04 18.525 10.125 19.98 10.125 21.6C10.125 23.955 12.045 25.875 14.4 25.875C15.45 25.875 16.47 25.485 17.25 24.78C18.165 23.97 18.675 22.815 18.675 21.6C18.675 21.36 18.66 21.135 18.615 20.895C17.82 20.97 17.01 20.895 16.275 20.685C14.67 20.25 13.29 19.2 12.435 17.805Z" fill="url(#paint0_linear_130_6166)"/>
<path d="M18.0022 20.9251C17.4022 20.9251 16.8172 20.8501 16.2772 20.7001C14.3122 20.1601 12.6923 18.7051 11.9423 16.8151C11.6423 16.0501 11.4922 15.2401 11.4922 14.4151C11.4922 10.8151 14.4172 7.89014 18.0172 7.89014C21.6172 7.89014 24.5422 10.8151 24.5422 14.4151C24.5422 15.2401 24.3922 16.0501 24.0922 16.8151C23.3422 18.7201 21.7072 20.1751 19.7422 20.7001C19.1872 20.8501 18.6022 20.9251 18.0022 20.9251ZM18.0022 10.1251C15.6472 10.1251 13.7273 12.0451 13.7273 14.4001C13.7273 14.9401 13.8322 15.4801 14.0272 15.9751C14.5222 17.2201 15.5872 18.1801 16.8772 18.5251C17.5822 18.7201 18.4222 18.7201 19.1272 18.5251C20.4322 18.1651 21.4973 17.2201 21.9773 15.9751C22.1723 15.4801 22.2772 14.9401 22.2772 14.4001C22.2772 12.0451 20.3572 10.1251 18.0022 10.1251Z" fill="url(#paint1_linear_130_6166)"/>
<path d="M21.6 28.1251C19.98 28.1251 18.435 27.5251 17.25 26.4451C17.01 26.2351 16.875 25.9201 16.875 25.6051C16.875 25.2901 17.01 24.9751 17.25 24.7651C18.15 23.9701 18.675 22.8151 18.675 21.6001C18.675 21.0601 18.57 20.5201 18.375 20.0251C18.255 19.7251 18.27 19.3951 18.42 19.1101C18.555 18.8251 18.825 18.6151 19.125 18.5251C20.415 18.1651 21.48 17.2201 21.975 15.9751C22.185 15.4501 22.755 15.1501 23.31 15.3001C26.145 16.0651 28.125 18.6601 28.125 21.6001C28.125 25.2001 25.2 28.1251 21.6 28.1251ZM19.68 25.4251C20.265 25.7251 20.925 25.8751 21.6 25.8751C23.955 25.8751 25.875 23.9551 25.875 21.6001C25.875 19.9801 24.96 18.5251 23.565 17.8051C22.905 18.8851 21.93 19.7551 20.79 20.2951C20.88 20.7151 20.925 21.1501 20.925 21.6001C20.925 22.9801 20.49 24.3151 19.68 25.4251Z" fill="url(#paint2_linear_130_6166)"/>
<path d="M22.5 34.125H13.5C5.355 34.125 1.875 30.645 1.875 22.5V13.5C1.875 5.355 5.355 1.875 13.5 1.875H22.5C30.645 1.875 34.125 5.355 34.125 13.5V22.5C34.125 30.645 30.645 34.125 22.5 34.125ZM13.5 4.125C6.585 4.125 4.125 6.585 4.125 13.5V22.5C4.125 29.415 6.585 31.875 13.5 31.875H22.5C29.415 31.875 31.875 29.415 31.875 22.5V13.5C31.875 6.585 29.415 4.125 22.5 4.125H13.5Z" fill="url(#paint3_linear_130_6166)"/>
<defs>
<linearGradient id="paint0_linear_130_6166" x1="20.9138" y1="15.2603" x2="6.22825" y2="17.5663" gradientUnits="userSpaceOnUse">
<stop stop-color="#7B61FF"/>
<stop offset="1" stop-color="#E42DC7"/>
</linearGradient>
<linearGradient id="paint1_linear_130_6166" x1="24.531" y1="7.89013" x2="9.83626" y2="10.1675" gradientUnits="userSpaceOnUse">
<stop stop-color="#7B61FF"/>
<stop offset="1" stop-color="#E42DC7"/>
</linearGradient>
<linearGradient id="paint2_linear_130_6166" x1="28.1153" y1="15.2615" x2="15.3767" y2="16.986" gradientUnits="userSpaceOnUse">
<stop stop-color="#7B61FF"/>
<stop offset="1" stop-color="#E42DC7"/>
</linearGradient>
<linearGradient id="paint3_linear_130_6166" x1="34.0972" y1="1.87499" x2="-2.21919" y2="7.49667" gradientUnits="userSpaceOnUse">
<stop stop-color="#7B61FF"/>
<stop offset="1" stop-color="#E42DC7"/>
</linearGradient>
</defs>
</svg>
