<svg width="36" height="36" viewBox="0 0 36 36" fill="none" xmlns="http://www.w3.org/2000/svg">
<path d="M24.42 33.1497H18.72C17.88 33.1497 16.05 32.8947 15.075 31.9197L10.53 28.4097L11.91 26.6247L16.56 30.2247C16.935 30.5847 17.88 30.8847 18.72 30.8847H24.42C25.77 30.8847 27.225 29.8047 27.525 28.5897L31.155 17.5647C31.395 16.9047 31.35 16.3047 31.035 15.8697C30.705 15.4047 30.105 15.1347 29.37 15.1347H23.37C22.59 15.1347 21.87 14.8047 21.375 14.2347C20.865 13.6497 20.64 12.8697 20.76 12.0597L21.51 7.24474C21.69 6.40474 21.12 5.45974 20.31 5.18974C19.575 4.91974 18.63 5.30974 18.3 5.78974L12.15 14.9397L10.29 13.6947L16.44 4.54474C17.385 3.13474 19.455 2.45974 21.075 3.07474C22.95 3.68974 24.15 5.75974 23.73 7.67974L22.995 12.4047C22.98 12.5097 22.98 12.6597 23.085 12.7797C23.16 12.8547 23.265 12.8997 23.385 12.8997H29.385C30.855 12.8997 32.13 13.5147 32.88 14.5797C33.615 15.6147 33.765 16.9797 33.285 18.2997L29.7 29.2197C29.145 31.3947 26.835 33.1497 24.42 33.1497Z" fill="url(#paint0_linear_148_11124)"/>
<path d="M8.07031 31.4996H6.57031C3.79531 31.4996 2.44531 30.1946 2.44531 27.5246V12.8246C2.44531 10.1546 3.79531 8.84961 6.57031 8.84961H8.07031C10.8453 8.84961 12.1953 10.1546 12.1953 12.8246V27.5246C12.1953 30.1946 10.8453 31.4996 8.07031 31.4996ZM6.57031 11.0996C4.93531 11.0996 4.69531 11.4896 4.69531 12.8246V27.5246C4.69531 28.8596 4.93531 29.2496 6.57031 29.2496H8.07031C9.70531 29.2496 9.94531 28.8596 9.94531 27.5246V12.8246C9.94531 11.4896 9.70531 11.0996 8.07031 11.0996H6.57031Z" fill="url(#paint1_linear_148_11124)"/>
<defs>
<linearGradient id="paint0_linear_148_11124" x1="33.5418" y1="2.84667" x2="7.08163" y2="5.99225" gradientUnits="userSpaceOnUse">
<stop stop-color="#7B61FF"/>
<stop offset="1" stop-color="#E42DC7"/>
</linearGradient>
<linearGradient id="paint1_linear_148_11124" x1="12.1869" y1="8.8496" x2="0.994143" y2="9.59543" gradientUnits="userSpaceOnUse">
<stop stop-color="#7B61FF"/>
<stop offset="1" stop-color="#E42DC7"/>
</linearGradient>
</defs>
</svg>
