<svg width="20" height="21" viewBox="0 0 20 21" fill="none" xmlns="http://www.w3.org/2000/svg">
<path d="M0.833496 2.99998C0.373259 2.99998 0.00016278 3.37308 0.00016278 3.83331C0.00016278 4.29355 0.373259 4.66665 0.833496 4.66665V2.99998ZM12.5002 3.83331H13.3335C13.3335 3.37308 12.9604 2.99998 12.5002 2.99998V3.83331ZM12.5002 7.16665V6.33331C12.2791 6.33331 12.0672 6.42111 11.9109 6.57739C11.7546 6.73367 11.6668 6.94563 11.6668 7.16665L12.5002 7.16665ZM1.66683 13.8333C1.66683 13.3731 1.29373 13 0.833496 13C0.373259 13 0.00016278 13.3731 0.00016278 13.8333H1.66683ZM0.833496 4.66665H12.5002V2.99998H0.833496V4.66665ZM11.6668 3.83331V15.5H13.3335V3.83331H11.6668ZM12.5002 7.99998H15.8335V6.33331H12.5002V7.99998ZM18.3335 10.5V13.8333H20.0002V10.5H18.3335ZM13.3335 15.5L13.3335 7.16665L11.6668 7.16665L11.6668 15.5L13.3335 15.5ZM16.4228 16.0892C16.0973 16.4147 15.5697 16.4147 15.2442 16.0892L14.0657 17.2677C15.042 18.2441 16.625 18.2441 17.6013 17.2677L16.4228 16.0892ZM15.2442 14.9107C15.5697 14.5853 16.0973 14.5853 16.4228 14.9107L17.6013 13.7322C16.625 12.7559 15.042 12.7559 14.0657 13.7322L15.2442 14.9107ZM5.58942 16.0892C5.26398 16.4147 4.73634 16.4147 4.41091 16.0892L3.2324 17.2677C4.20871 18.2441 5.79162 18.2441 6.76793 17.2677L5.58942 16.0892ZM4.41091 14.9107C4.73634 14.5853 5.26398 14.5853 5.58942 14.9107L6.76793 13.7322C5.79162 12.7559 4.20871 12.7559 3.2324 13.7322L4.41091 14.9107ZM16.4228 14.9107C16.5856 15.0736 16.6668 15.2854 16.6668 15.5H18.3335C18.3335 14.8615 18.0893 14.2202 17.6013 13.7322L16.4228 14.9107ZM16.6668 15.5C16.6668 15.7145 16.5856 15.9264 16.4228 16.0892L17.6013 17.2677C18.0893 16.7798 18.3335 16.1385 18.3335 15.5H16.6668ZM14.1668 14.6666H12.5002V16.3333H14.1668V14.6666ZM15.2442 16.0892C15.0814 15.9264 15.0002 15.7145 15.0002 15.5H13.3335C13.3335 16.1385 13.5777 16.7798 14.0657 17.2677L15.2442 16.0892ZM15.0002 15.5C15.0002 15.2854 15.0814 15.0736 15.2442 14.9107L14.0657 13.7322C13.5777 14.2202 13.3335 14.8615 13.3335 15.5H15.0002ZM4.41091 16.0892C4.24803 15.9264 4.16683 15.7145 4.16683 15.5H2.50016C2.50016 16.1385 2.7444 16.7798 3.2324 17.2677L4.41091 16.0892ZM4.16683 15.5C4.16683 15.2854 4.24803 15.0736 4.41091 14.9107L3.2324 13.7322C2.7444 14.2202 2.50016 14.8615 2.50016 15.5H4.16683ZM3.3335 14.6666H2.47516V16.3333H3.3335V14.6666ZM12.5002 14.6666H6.66683V16.3333H12.5002V14.6666ZM5.58942 14.9107C5.7523 15.0736 5.8335 15.2854 5.8335 15.5H7.50016C7.50016 14.8615 7.25592 14.2202 6.76793 13.7322L5.58942 14.9107ZM5.8335 15.5C5.8335 15.7145 5.7523 15.9264 5.58942 16.0892L6.76793 17.2677C7.25592 16.7798 7.50016 16.1385 7.50016 15.5H5.8335ZM1.66683 13.8583V13.8333H0.00016278V13.8583H1.66683ZM18.3335 13.8333C18.3335 14.2936 17.9604 14.6666 17.5002 14.6666V16.3333C18.8809 16.3333 20.0002 15.214 20.0002 13.8333H18.3335ZM15.8335 7.99998C17.2142 7.99998 18.3335 9.11927 18.3335 10.5H20.0002C20.0002 8.19879 18.1347 6.33331 15.8335 6.33331V7.99998ZM2.47516 14.6666C2.02873 14.6666 1.66683 14.3047 1.66683 13.8583H0.00016278C0.00016278 15.2252 1.10826 16.3333 2.47516 16.3333V14.6666Z" fill="#0087F9"/>
<path d="M0.833496 7.16669H4.16683" stroke="#0087F9" stroke-width="1.66667" stroke-linecap="round" stroke-linejoin="round"/>
<path d="M0.833496 10.5H5.8335" stroke="#0087F9" stroke-width="1.66667" stroke-linecap="round" stroke-linejoin="round"/>
</svg>
