<svg width="36" height="36" viewBox="0 0 36 36" fill="none" xmlns="http://www.w3.org/2000/svg">
<path d="M22.4551 34.125H13.4551C5.31008 34.125 1.83008 30.645 1.83008 22.5V13.5C1.83008 5.355 5.31008 1.875 13.4551 1.875H16.4551C17.0701 1.875 17.5801 2.385 17.5801 3C17.5801 3.615 17.0701 4.125 16.4551 4.125H13.4551C6.54008 4.125 4.08008 6.585 4.08008 13.5V22.5C4.08008 29.415 6.54008 31.875 13.4551 31.875H22.4551C29.3701 31.875 31.8301 29.415 31.8301 22.5V19.5C31.8301 18.885 32.3401 18.375 32.9551 18.375C33.5701 18.375 34.0801 18.885 34.0801 19.5V22.5C34.0801 30.645 30.6151 34.125 22.4551 34.125Z" fill="url(#paint0_linear_148_11130)"/>
<path d="M19.1704 22.8598C18.9454 22.8598 18.7354 22.7998 18.5404 22.6648C18.2254 22.4548 18.0454 22.1098 18.0454 21.7348C18.0454 21.5698 18.0304 21.3898 18.0004 21.2098C17.8954 20.4148 17.5354 19.7098 16.9354 19.0948C16.3204 18.4798 15.5704 18.0898 14.7454 17.9848C14.6254 17.9698 14.4304 17.9548 14.2504 17.9698C13.8754 17.9998 13.5004 17.8348 13.2754 17.5348C13.0504 17.2348 12.9904 16.8298 13.1104 16.4698C13.2904 15.9598 13.5754 15.4798 13.9054 15.1048L15.7504 12.7948C18.9604 8.78983 25.4254 3.98983 30.1954 2.08483C31.2904 1.66483 32.4454 1.90483 33.2404 2.69983C34.0654 3.52483 34.3054 4.69483 33.8704 5.75983C31.9654 10.5148 27.1654 16.9948 23.1754 20.1898L20.8204 22.0798C20.3554 22.4098 19.9804 22.6348 19.5904 22.7848C19.4554 22.8298 19.3054 22.8598 19.1704 22.8598ZM16.0804 16.0048C16.9954 16.3048 17.8204 16.8148 18.5254 17.5048C19.2154 18.1948 19.7104 18.9898 19.9954 19.8448L21.7654 18.4198C25.5004 15.4198 30.0004 9.35983 31.7854 4.90483C31.9054 4.61983 31.7704 4.40983 31.6504 4.27483C31.5754 4.19983 31.3654 4.03483 31.0204 4.16983C26.5804 5.95483 20.5204 10.4548 17.5204 14.1898L16.0804 16.0048Z" fill="url(#paint1_linear_148_11130)"/>
<path d="M11.5505 28.1254C10.5905 28.1254 9.67548 27.7504 8.98548 27.0604C8.19048 26.2654 7.80048 25.1704 7.93548 24.0454L8.25048 21.1054C8.58048 18.0604 11.0555 15.8104 14.1605 15.7504C14.4005 15.7354 14.7005 15.7504 14.9855 15.7654C16.3505 15.9454 17.5655 16.5454 18.5255 17.5204C19.4855 18.4804 20.0705 19.6204 20.2355 20.9104C20.2805 21.1954 20.2955 21.4804 20.2955 21.7504C20.2955 23.3854 19.6655 24.9304 18.5105 26.0854C17.5655 27.0304 16.3355 27.6154 14.9405 27.7954L11.9705 28.1104C11.8205 28.1254 11.6855 28.1254 11.5505 28.1254ZM14.4005 17.9854C14.3555 17.9854 14.2955 17.9854 14.2505 17.9854C12.5255 18.0304 10.7105 19.1854 10.4855 21.3454L10.1705 24.3004C10.1255 24.7354 10.2755 25.1704 10.5755 25.4704C10.8755 25.7704 11.2955 25.9204 11.7155 25.8754L14.6705 25.5604C15.5405 25.4554 16.3205 25.0804 16.9055 24.4954C17.6255 23.7604 18.0305 22.8004 18.0305 21.7504C18.0305 21.5854 18.0155 21.4054 17.9855 21.2254C17.8805 20.4304 17.5205 19.7254 16.9205 19.1104C16.3055 18.4954 15.5555 18.1054 14.7305 18.0004C14.6555 17.9854 14.5355 17.9854 14.4005 17.9854Z" fill="url(#paint2_linear_148_11130)"/>
<path d="M23.7299 19.0952C23.1149 19.0952 22.6049 18.5852 22.6049 17.9702C22.6049 15.4652 20.5649 13.4102 18.0449 13.4102C17.4299 13.4102 16.9199 12.9002 16.9199 12.2852C16.9199 11.6702 17.4299 11.1602 18.0449 11.1602C21.7949 11.1602 24.8549 14.2052 24.8549 17.9702C24.8549 18.5852 24.3599 19.0952 23.7299 19.0952Z" fill="url(#paint3_linear_148_11130)"/>
<defs>
<linearGradient id="paint0_linear_148_11130" x1="34.0523" y1="1.87499" x2="-2.26411" y2="7.49667" gradientUnits="userSpaceOnUse">
<stop stop-color="#7B61FF"/>
<stop offset="1" stop-color="#E42DC7"/>
</linearGradient>
<linearGradient id="paint1_linear_148_11130" x1="34.0656" y1="1.88085" x2="10.3824" y2="5.55655" gradientUnits="userSpaceOnUse">
<stop stop-color="#7B61FF"/>
<stop offset="1" stop-color="#E42DC7"/>
</linearGradient>
<linearGradient id="paint2_linear_148_11130" x1="20.2848" y1="15.7441" x2="6.33699" y2="17.9041" gradientUnits="userSpaceOnUse">
<stop stop-color="#7B61FF"/>
<stop offset="1" stop-color="#E42DC7"/>
</linearGradient>
<linearGradient id="paint3_linear_148_11130" x1="24.8481" y1="11.1602" x2="15.9126" y2="12.5433" gradientUnits="userSpaceOnUse">
<stop stop-color="#7B61FF"/>
<stop offset="1" stop-color="#E42DC7"/>
</linearGradient>
</defs>
</svg>
