<svg width="24" height="24" viewBox="0 0 24 24" fill="none" xmlns="http://www.w3.org/2000/svg">
<path d="M15 22.75H9C3.57 22.75 1.25 20.43 1.25 15V9C1.25 3.57 3.57 1.25 9 1.25H15C20.43 1.25 22.75 3.57 22.75 9V15C22.75 20.43 20.43 22.75 15 22.75ZM9 2.75C4.39 2.75 2.75 4.39 2.75 9V15C2.75 19.61 4.39 21.25 9 21.25H15C19.61 21.25 21.25 19.61 21.25 15V9C21.25 4.39 19.61 2.75 15 2.75H9Z" fill="#AFB8BF"/>
<path d="M10.5814 15.58C10.3814 15.58 10.1914 15.5 10.0514 15.36L7.22141 12.53C6.93141 12.24 6.93141 11.76 7.22141 11.47C7.51141 11.18 7.99141 11.18 8.28141 11.47L10.5814 13.77L15.7214 8.62998C16.0114 8.33998 16.4914 8.33998 16.7814 8.62998C17.0714 8.91998 17.0714 9.39998 16.7814 9.68998L11.1114 15.36C10.9714 15.5 10.7814 15.58 10.5814 15.58Z" fill="#AFB8BF"/>
</svg>
