<svg width="24" height="24" viewBox="0 0 24 24" fill="none" xmlns="http://www.w3.org/2000/svg">
<path d="M19.3327 6.75V9.75L11.9994 12.75L4.66602 9.75V6.75C4.66602 6.55109 4.74328 6.36032 4.8808 6.21967C5.01833 6.07902 5.20486 6 5.39935 6H18.5994C18.7938 6 18.9804 6.07902 19.1179 6.21967C19.2554 6.36032 19.3327 6.55109 19.3327 6.75ZM4.66602 11.3655V17.25C4.66602 17.4489 4.74328 17.6397 4.8808 17.7803C5.01833 17.921 5.20486 18 5.39935 18H18.5994C18.7938 18 18.9804 17.921 19.1179 17.7803C19.2554 17.6397 19.3327 17.4489 19.3327 17.25V11.3655L11.9994 14.3655L4.66602 11.3655Z" fill="white"/>
</svg>
