<svg width="36" height="36" viewBox="0 0 36 36" fill="none" xmlns="http://www.w3.org/2000/svg">
<path d="M19.4987 22.125H17.9987C17.3837 22.125 16.8737 21.615 16.8737 21C16.8737 20.385 17.3837 19.875 17.9987 19.875H19.4987C20.5337 19.875 21.3737 19.035 21.3737 18V4.125H8.99869C7.22869 4.125 5.60865 5.08497 4.73865 6.62997C4.43865 7.16997 3.74871 7.36503 3.20871 7.06503C2.66871 6.76503 2.47365 6.075 2.77365 5.535C4.03365 3.285 6.41869 1.875 8.99869 1.875H22.4987C23.1137 1.875 23.6237 2.385 23.6237 3V18C23.6237 20.28 21.7787 22.125 19.4987 22.125Z" fill="url(#paint0_linear_148_16310)"/>
<path d="M28.5 31.125H27C26.385 31.125 25.875 30.615 25.875 30C25.875 28.965 25.035 28.125 24 28.125C22.965 28.125 22.125 28.965 22.125 30C22.125 30.615 21.615 31.125 21 31.125H15C14.385 31.125 13.875 30.615 13.875 30C13.875 28.965 13.035 28.125 12 28.125C10.965 28.125 10.125 28.965 10.125 30C10.125 30.615 9.615 31.125 9 31.125H7.5C4.395 31.125 1.875 28.605 1.875 25.5C1.875 24.885 2.385 24.375 3 24.375C3.615 24.375 4.125 24.885 4.125 25.5C4.125 27.36 5.64 28.875 7.5 28.875H8.02496C8.51996 27.15 10.11 25.875 12 25.875C13.89 25.875 15.48 27.15 15.975 28.875H20.04C20.535 27.15 22.125 25.875 24.015 25.875C25.905 25.875 27.495 27.15 27.99 28.875H28.5C30.36 28.875 31.875 27.36 31.875 25.5V22.125H28.5C27.06 22.125 25.875 20.94 25.875 19.5V15C25.875 13.56 27.045 12.375 28.5 12.375L26.895 9.57001C26.565 8.98501 25.935 8.625 25.26 8.625H23.625V18C23.625 20.28 21.78 22.125 19.5 22.125H18C17.385 22.125 16.875 21.615 16.875 21C16.875 20.385 17.385 19.875 18 19.875H19.5C20.535 19.875 21.375 19.035 21.375 18V7.5C21.375 6.885 21.885 6.375 22.5 6.375H25.26C26.745 6.375 28.11 7.17002 28.845 8.46002L31.41 12.945C31.605 13.29 31.605 13.725 31.41 14.07C31.215 14.415 30.84 14.625 30.435 14.625H28.5C28.29 14.625 28.125 14.79 28.125 15V19.5C28.125 19.71 28.29 19.875 28.5 19.875H33C33.615 19.875 34.125 20.385 34.125 21V25.5C34.125 28.605 31.605 31.125 28.5 31.125Z" fill="url(#paint1_linear_148_16310)"/>
<path d="M12 34.125C9.72 34.125 7.875 32.28 7.875 30C7.875 27.72 9.72 25.875 12 25.875C14.28 25.875 16.125 27.72 16.125 30C16.125 32.28 14.28 34.125 12 34.125ZM12 28.125C10.965 28.125 10.125 28.965 10.125 30C10.125 31.035 10.965 31.875 12 31.875C13.035 31.875 13.875 31.035 13.875 30C13.875 28.965 13.035 28.125 12 28.125Z" fill="url(#paint2_linear_148_16310)"/>
<path d="M24 34.125C21.72 34.125 19.875 32.28 19.875 30C19.875 27.72 21.72 25.875 24 25.875C26.28 25.875 28.125 27.72 28.125 30C28.125 32.28 26.28 34.125 24 34.125ZM24 28.125C22.965 28.125 22.125 28.965 22.125 30C22.125 31.035 22.965 31.875 24 31.875C25.035 31.875 25.875 31.035 25.875 30C25.875 28.965 25.035 28.125 24 28.125Z" fill="url(#paint3_linear_148_16310)"/>
<path d="M33 22.125H28.5C27.06 22.125 25.875 20.94 25.875 19.5V15C25.875 13.56 27.06 12.375 28.5 12.375H30.435C30.84 12.375 31.215 12.585 31.41 12.945L33.975 17.445C34.065 17.61 34.125 17.805 34.125 18V21C34.125 21.615 33.615 22.125 33 22.125ZM28.5 14.625C28.29 14.625 28.125 14.79 28.125 15V19.5C28.125 19.71 28.29 19.875 28.5 19.875H31.875V18.3L29.775 14.625H28.5Z" fill="url(#paint4_linear_148_16310)"/>
<path d="M12 13.125H3C2.385 13.125 1.875 12.615 1.875 12C1.875 11.385 2.385 10.875 3 10.875H12C12.615 10.875 13.125 11.385 13.125 12C13.125 12.615 12.615 13.125 12 13.125Z" fill="url(#paint5_linear_148_16310)"/>
<path d="M9 17.625H3C2.385 17.625 1.875 17.115 1.875 16.5C1.875 15.885 2.385 15.375 3 15.375H9C9.615 15.375 10.125 15.885 10.125 16.5C10.125 17.115 9.615 17.625 9 17.625Z" fill="url(#paint6_linear_148_16310)"/>
<path d="M6 22.125H3C2.385 22.125 1.875 21.615 1.875 21C1.875 20.385 2.385 19.875 3 19.875H6C6.615 19.875 7.125 20.385 7.125 21C7.125 21.615 6.615 22.125 6 22.125Z" fill="url(#paint7_linear_148_16310)"/>
<defs>
<linearGradient id="paint0_linear_148_16310" x1="23.6056" y1="1.875" x2="0.00913352" y2="5.6613" gradientUnits="userSpaceOnUse">
<stop stop-color="#7B61FF"/>
<stop offset="1" stop-color="#E42DC7"/>
</linearGradient>
<linearGradient id="paint1_linear_148_16310" x1="34.0972" y1="6.37499" x2="-1.63561" y2="13.5825" gradientUnits="userSpaceOnUse">
<stop stop-color="#7B61FF"/>
<stop offset="1" stop-color="#E42DC7"/>
</linearGradient>
<linearGradient id="paint2_linear_148_16310" x1="16.1179" y1="25.875" x2="6.82765" y2="27.3131" gradientUnits="userSpaceOnUse">
<stop stop-color="#7B61FF"/>
<stop offset="1" stop-color="#E42DC7"/>
</linearGradient>
<linearGradient id="paint3_linear_148_16310" x1="28.1179" y1="25.875" x2="18.8277" y2="27.3131" gradientUnits="userSpaceOnUse">
<stop stop-color="#7B61FF"/>
<stop offset="1" stop-color="#E42DC7"/>
</linearGradient>
<linearGradient id="paint4_linear_148_16310" x1="34.1179" y1="12.375" x2="24.7655" y2="13.6" gradientUnits="userSpaceOnUse">
<stop stop-color="#7B61FF"/>
<stop offset="1" stop-color="#E42DC7"/>
</linearGradient>
<linearGradient id="paint5_linear_148_16310" x1="13.1153" y1="10.875" x2="5.00296" y2="17.1538" gradientUnits="userSpaceOnUse">
<stop stop-color="#7B61FF"/>
<stop offset="1" stop-color="#E42DC7"/>
</linearGradient>
<linearGradient id="paint6_linear_148_16310" x1="10.1179" y1="15.375" x2="2.92295" y2="19.4588" gradientUnits="userSpaceOnUse">
<stop stop-color="#7B61FF"/>
<stop offset="1" stop-color="#E42DC7"/>
</linearGradient>
<linearGradient id="paint7_linear_148_16310" x1="7.12048" y1="19.875" x2="1.76546" y2="21.8092" gradientUnits="userSpaceOnUse">
<stop stop-color="#7B61FF"/>
<stop offset="1" stop-color="#E42DC7"/>
</linearGradient>
</defs>
</svg>
