<svg width="16" height="17" viewBox="0 0 16 17" fill="none" xmlns="http://www.w3.org/2000/svg">
<g clip-path="url(#clip0_1329_1465)">
<path d="M15.3334 5.16651H14.596C14.6463 4.94793 14.67 4.7241 14.6667 4.49985C14.695 4.14246 14.6455 3.78318 14.5215 3.44679C14.3975 3.11041 14.202 2.80493 13.9485 2.55142C13.695 2.29792 13.3895 2.10242 13.0531 1.97842C12.7167 1.85442 12.3574 1.80487 12 1.83318C10.5574 1.83318 9.35404 3.34718 8.66671 4.45185C7.97937 3.34718 6.77604 1.83318 5.33337 1.83318C4.97598 1.80487 4.6167 1.85442 4.28032 1.97842C3.94394 2.10242 3.63846 2.29792 3.38495 2.55142C3.13145 2.80493 2.93595 3.11041 2.81195 3.44679C2.68795 3.78318 2.6384 4.14246 2.66671 4.49985C2.66343 4.7241 2.68715 4.94793 2.73737 5.16651H2.00004C1.82323 5.16651 1.65366 5.23675 1.52864 5.36178C1.40361 5.4868 1.33337 5.65637 1.33337 5.83318V9.16651C1.33337 9.34333 1.40361 9.51289 1.52864 9.63792C1.65366 9.76294 1.82323 9.83318 2.00004 9.83318H2.66671V14.4998C2.66671 14.6767 2.73695 14.8462 2.86197 14.9713C2.98699 15.0963 3.15656 15.1665 3.33337 15.1665H14C14.1769 15.1665 14.3464 15.0963 14.4714 14.9713C14.5965 14.8462 14.6667 14.6767 14.6667 14.4998V9.83318H15.3334C15.5102 9.83318 15.6798 9.76294 15.8048 9.63792C15.9298 9.51289 16 9.34333 16 9.16651V5.83318C16 5.65637 15.9298 5.4868 15.8048 5.36178C15.6798 5.23675 15.5102 5.16651 15.3334 5.16651ZM5.33337 3.16651C6.07537 3.16651 6.94604 4.22185 7.53871 5.16651H5.70404C4.00004 5.16651 4.00004 4.89985 4.00004 4.49985C4.00004 3.30518 4.76137 3.16651 5.33337 3.16651ZM8.00004 13.8332H4.00004V9.83318H8.00004V13.8332ZM8.00004 8.49985H2.66671V6.49985H8.00004V8.49985ZM12 3.16651C12.572 3.16651 13.3334 3.30518 13.3334 4.49985C13.3334 4.89985 13.3334 5.16651 11.6294 5.16651H9.79471C10.3874 4.22185 11.258 3.16651 12 3.16651ZM13.3334 13.8332H9.33337V9.83318H13.3334V13.8332ZM14.6667 8.49985H9.33337V6.49985H14.6667V8.49985Z" fill="white"/>
</g>
<defs>
<clipPath id="clip0_1329_1465">
<rect width="16" height="16" fill="white" transform="translate(0 0.5)"/>
</clipPath>
</defs>
</svg>
