<svg width="24" height="24" viewBox="0 0 24 24" fill="none" xmlns="http://www.w3.org/2000/svg">
<path d="M17.4683 7.77829C17.4683 7.25258 17.0403 6.82809 16.5141 6.82809C15.988 6.82809 15.5596 7.25258 15.5596 7.77829C15.5596 8.30207 15.988 8.72656 16.5141 8.72656C17.0403 8.72656 17.4683 8.30207 17.4683 7.77829Z" fill="white"/>
<path d="M18.7399 15.1956C18.7045 15.9668 18.5749 16.3858 18.4674 16.6641C18.3228 17.0331 18.1505 17.297 17.8709 17.5737C17.5945 17.8504 17.3294 18.0216 16.9588 18.1639C16.6792 18.2726 16.2567 18.402 15.482 18.4387C14.6444 18.4754 14.3963 18.4833 12.2724 18.4833C10.1505 18.4833 9.90033 18.4754 9.06279 18.4387C8.28809 18.402 7.86756 18.2726 7.58796 18.1639C7.21534 18.0216 6.95227 17.8504 6.67427 17.5737C6.39429 17.297 6.22193 17.0331 6.07939 16.6641C5.97178 16.3858 5.84026 15.9668 5.80687 15.1956C5.76605 14.3619 5.75857 14.111 5.75857 12.001C5.75857 9.88679 5.76605 9.63779 5.80687 8.80405C5.84026 8.03288 5.97178 7.61425 6.07939 7.33359C6.22193 6.965 6.39429 6.70272 6.67427 6.42598C6.95227 6.14965 7.21534 5.97804 7.58796 5.83422C7.86756 5.72516 8.28809 5.59773 9.06279 5.561C9.90033 5.52423 10.1505 5.51485 12.2724 5.51485C14.3963 5.51485 14.6444 5.52423 15.482 5.561C16.2567 5.59773 16.6792 5.72516 16.9588 5.83422C17.3294 5.97804 17.5945 6.14965 17.8709 6.42598C18.1505 6.70272 18.3228 6.965 18.4674 7.33359C18.5749 7.61425 18.7045 8.03288 18.7399 8.80405C18.7787 9.63779 18.7881 9.88679 18.7881 12.001C18.7881 14.111 18.7787 14.3619 18.7399 15.1956ZM20.1703 8.73918C20.1315 7.89644 19.9979 7.32069 19.7996 6.81922C19.5978 6.29895 19.3273 5.85805 18.8844 5.41714C18.4434 4.9782 18.0005 4.70888 17.4779 4.50564C16.9721 4.31019 16.3957 4.17572 15.5487 4.13899C14.7018 4.09833 14.4312 4.09091 12.2724 4.09091C10.1155 4.09091 9.84302 4.09833 8.99606 4.13899C8.15104 4.17572 7.57501 4.31019 7.06692 4.50564C6.54625 4.70888 6.10333 4.9782 5.66239 5.41714C5.21947 5.85805 4.94892 6.29895 4.74513 6.81922C4.54879 7.32069 4.4153 7.89644 4.37445 8.73918C4.33755 9.58229 4.32812 9.85199 4.32812 12.001C4.32812 14.1481 4.33755 14.4174 4.37445 15.2605C4.4153 16.1017 4.54879 16.677 4.74513 17.1809C4.94892 17.6992 5.21947 18.142 5.66239 18.581C6.10333 19.0199 6.54625 19.2912 7.06692 19.4941C7.57501 19.6895 8.15104 19.8224 8.99606 19.8611C9.84302 19.8998 10.1155 19.9092 12.2724 19.9092C14.4312 19.9092 14.7018 19.8998 15.5487 19.8611C16.3957 19.8224 16.9721 19.6895 17.4779 19.4941C18.0005 19.2912 18.4434 19.0199 18.8844 18.581C19.3273 18.142 19.5978 17.6992 19.7996 17.1809C19.9979 16.677 20.1315 16.1017 20.1703 15.2605C20.2092 14.4174 20.2186 14.1481 20.2186 12.001C20.2186 9.85199 20.2092 9.58229 20.1703 8.73918Z" fill="white"/>
<path d="M12.2719 14.6351C10.81 14.6351 9.6238 13.4562 9.6238 12.001C9.6238 10.5434 10.81 9.36303 12.2719 9.36303C13.7342 9.36303 14.922 10.5434 14.922 12.001C14.922 13.4562 13.7342 14.6351 12.2719 14.6351ZM12.2719 7.93712C10.0184 7.93712 8.19336 9.75779 8.19336 12.001C8.19336 14.2423 10.0184 16.061 12.2719 16.061C14.5254 16.061 16.3524 14.2423 16.3524 12.001C16.3524 9.75779 14.5254 7.93712 12.2719 7.93712Z" fill="white"/>
</svg>
