<svg width="131" height="24" viewBox="0 0 131 24" fill="none" xmlns="http://www.w3.org/2000/svg">
<g clip-path="url(#clip0_9_882)">
<path fill-rule="evenodd" clip-rule="evenodd" d="M80.1412 23.55H87.4875L82.2475 16.15C85.2271 14.75 86.9737 12.2 86.9737 8.7C86.9737 3.3 82.8126 0 76.2369 0H65.1918V23.55H72.0243V17.3H75.7745L80.1412 23.55ZM105.262 11.8C105.262 8.1 102.18 5.15 98.4298 5.15C94.6282 5.15 91.5973 8.15 91.5973 11.8C91.5973 15.5 94.6796 18.45 98.4298 18.45C102.18 18.45 105.262 15.5 105.262 11.8ZM8.37373 24C14.4357 24 17.7235 21 17.7235 14.85V0H2.56863V5.15H10.9424V15.25C10.9424 17.5 9.86353 18.7 7.91137 18.7C6.3702 18.7 5.03451 17.85 3.7502 16.25L0 20.55C1.84941 22.8 4.88039 24 8.37373 24ZM26.8165 18.4V14.1H37.5533V9.15H26.8165V5.2H38.9918V0H20.0353V23.55H39.4541V18.4H26.8165ZM48.3929 23.55H55.2255V5.3H62.6231V0H40.9953V5.3H48.4443V23.55H48.3929ZM124.322 0H131V23.55H125.349L114.715 11V23.55H103.362C108.088 21.65 111.427 17.1 111.427 11.8C111.427 6.45 108.036 1.85 103.207 0H113.636L124.322 12.55V0ZM80.0898 8.7C80.0898 10.85 78.6514 12.15 75.8259 12.15H72.0243V5.25H75.8259C78.6514 5.25 80.0898 6.5 80.0898 8.7Z" fill="white"/>
</g>
<defs>
<clipPath id="clip0_9_882">
<rect width="131" height="24" fill="white"/>
</clipPath>
</defs>
</svg>
