<svg width="70" height="49" viewBox="0 0 70 49" fill="none" xmlns="http://www.w3.org/2000/svg">
<path fill-rule="evenodd" clip-rule="evenodd" d="M35.3949 35.4864C33.0118 37.5858 29.9204 38.8532 26.5424 38.8532C19.0051 38.8532 12.8949 32.5433 12.8949 24.7596C12.8949 16.9759 19.0051 10.666 26.5424 10.666C29.9204 10.666 33.0118 11.9334 35.3949 14.0328C37.7781 11.9334 40.8694 10.666 44.2474 10.666C51.7848 10.666 57.895 16.9759 57.895 24.7596C57.895 32.5433 51.7848 38.8532 44.2474 38.8532C40.8694 38.8532 37.7781 37.5858 35.3949 35.4864Z" fill="#9C9C9C"/>
<path fill-rule="evenodd" clip-rule="evenodd" d="M35.3949 35.4864C38.3293 32.9014 40.1899 29.0549 40.1899 24.7596C40.1899 20.4643 38.3293 16.6178 35.3949 14.0328C37.778 11.9334 40.8694 10.666 44.2474 10.666C51.7847 10.666 57.8949 16.9759 57.8949 24.7596C57.8949 32.5433 51.7847 38.8532 44.2474 38.8532C40.8694 38.8532 37.778 37.5858 35.3949 35.4864Z" fill="#CCCCCC"/>
<path fill-rule="evenodd" clip-rule="evenodd" d="M35.395 35.4867C38.3293 32.9017 40.19 29.0552 40.19 24.76C40.19 20.4647 38.3293 16.6182 35.395 14.0332C32.4606 16.6182 30.6 20.4647 30.6 24.76C30.6 29.0552 32.4606 32.9017 35.395 35.4867Z" fill="#808080"/>
</svg>
