<svg width="70" height="49" viewBox="0 0 70 49" fill="none" xmlns="http://www.w3.org/2000/svg">
<path fill-rule="evenodd" clip-rule="evenodd" d="M22.0104 17.8076V17.8139C22.0041 17.8139 20.0086 17.8076 19.4764 19.7013C18.9886 21.4376 17.614 26.2316 17.5759 26.3637H17.1958C17.1958 26.3637 15.7895 21.4628 15.2954 19.695C14.7632 17.8013 12.7614 17.8076 12.7614 17.8076H8.2002V32.2145H12.7614V23.6584H12.9514H13.1415L15.8022 32.2145H18.9696L21.6303 23.6647H22.0104V32.2145H26.5716V17.8076H22.0104Z" fill="#8E8E8E"/>
<path fill-rule="evenodd" clip-rule="evenodd" d="M38.6719 17.8076C38.6719 17.8076 37.3352 17.9272 36.7081 19.3175L33.4772 26.3637H33.0971V17.8076H28.5359V32.2145H32.8437C32.8437 32.2145 34.2438 32.0887 34.8709 30.7046L38.0384 23.6584H38.4185V32.2145H42.9797V17.8076H38.6719Z" fill="#8E8E8E"/>
<path fill-rule="evenodd" clip-rule="evenodd" d="M45.0062 24.3506V32.2146H49.5673V27.622H54.5086C56.6625 27.622 58.487 26.2568 59.1648 24.3506H45.0062Z" fill="#8E8E8E"/>
<path fill-rule="evenodd" clip-rule="evenodd" d="M54.5087 17.8076H44.3664C44.8732 20.5506 46.9447 22.7525 49.6244 23.4697C50.2326 23.6333 50.8724 23.7214 51.5312 23.7214H59.3486C59.4183 23.3942 59.4499 23.0608 59.4499 22.7148C59.4499 20.0033 57.239 17.8076 54.5087 17.8076Z" fill="#C0C0C0"/>
</svg>
