<svg width="24" height="24" viewBox="0 0 24 24" fill="none" xmlns="http://www.w3.org/2000/svg">
<path d="M11.7278 3.54541C9.31539 3.54541 7.3529 5.43984 7.3529 7.76877C7.3529 10.0975 9.31539 11.9911 11.7278 11.9911C14.1402 11.9911 16.1017 10.0975 16.1017 7.76877C16.1017 5.43984 14.1402 3.54541 11.7278 3.54541ZM11.7278 6.0199C12.7263 6.0199 13.5382 6.80482 13.5382 7.76877C13.5382 8.73231 12.7263 9.51662 11.7278 9.51662C10.7292 9.51662 9.91641 8.73232 9.91641 7.76877C9.91641 6.80482 10.7292 6.0199 11.7278 6.0199ZM8.1209 12.1348C7.68806 12.1283 7.26243 12.3343 7.01552 12.7142C6.63819 13.2929 6.81895 14.0566 7.417 14.4206C8.20807 14.8997 9.06648 15.2397 9.95668 15.4356L7.51181 17.7971C7.01131 18.2806 7.01174 19.0635 7.51234 19.547C7.76325 19.7883 8.0905 19.909 8.41857 19.909C8.74631 19.909 9.07466 19.7881 9.32481 19.5465L11.7268 17.2264L14.1309 19.5465C14.6309 20.0298 15.4418 20.0298 15.9428 19.5465C16.4435 19.0634 16.4435 18.2795 15.9428 17.7971L13.4969 15.4362C14.3873 15.2402 15.246 14.9001 16.0365 14.4206C16.6358 14.0566 16.8168 13.2921 16.4396 12.7142C16.062 12.1353 15.2713 11.9609 14.6716 12.3255C12.8806 13.4132 10.5729 13.4125 8.78243 12.3255C8.57633 12.2002 8.34763 12.1382 8.1209 12.1348V12.1348Z" fill="white"/>
</svg>
