<svg width="24" height="24" viewBox="0 0 24 24" fill="none" xmlns="http://www.w3.org/2000/svg">
<path d="M19.0381 16.3141C19.2133 16.4899 19.3447 16.7046 19.4216 16.9406C19.4984 17.1767 19.5186 17.4275 19.4805 17.6729C19.4424 17.9182 19.347 18.1511 19.2021 18.3527C19.0573 18.5543 18.8669 18.7189 18.6466 18.8333C17.3874 19.5063 15.9203 19.6783 14.5396 19.3148C10.8751 18.3923 5.60784 13.1251 4.68534 9.46056C4.32183 8.07985 4.49383 6.61276 5.16684 5.35356C5.28121 5.13322 5.44587 4.9429 5.64747 4.79802C5.84908 4.65315 6.08197 4.55779 6.32729 4.51967C6.57261 4.48154 6.82346 4.50173 7.05952 4.57859C7.29559 4.65545 7.51024 4.78682 7.68609 4.96206L9.24984 6.52506C9.47534 6.74831 9.62794 7.03462 9.68751 7.3463C9.74709 7.65797 9.71086 7.98039 9.58359 8.27106C9.44431 8.59719 9.24656 8.8951 9.00009 9.15006C7.21209 10.9381 13.0628 16.7888 14.8501 15.0001C15.1051 14.7527 15.4033 14.5542 15.7298 14.4143C16.0205 14.2868 16.3429 14.2505 16.6547 14.3101C16.9664 14.3697 17.2527 14.5224 17.4758 14.7481L19.0381 16.3141Z" fill="#0087F9"/>
</svg>
