<svg width="36" height="36" viewBox="0 0 36 36" fill="none" xmlns="http://www.w3.org/2000/svg">
<path d="M9.04673 10.0259C8.94874 10.0259 8.85074 10.0033 8.76028 9.95051L2.10399 6.09846C1.84015 5.94015 1.74216 5.59339 1.90046 5.32202C2.05876 5.05064 2.40552 4.96018 2.6769 5.11848L9.04673 8.8047L15.3789 5.1411C15.6503 4.9828 15.997 5.08079 16.1553 5.34463C16.3136 5.61601 16.2156 5.96277 15.9518 6.12107L9.34073 9.95051C9.24273 9.99574 9.14473 10.0259 9.04673 10.0259Z" fill="url(#paint0_linear_148_10121)"/>
<path d="M9.04584 16.8556C8.73677 16.8556 8.48047 16.5993 8.48047 16.2902V9.453C8.48047 9.14394 8.73677 8.88763 9.04584 8.88763C9.35491 8.88763 9.61121 9.14394 9.61121 9.453V16.2902C9.61121 16.5993 9.35491 16.8556 9.04584 16.8556Z" fill="url(#paint1_linear_148_10121)"/>
<path d="M9.04597 17.1495C8.3826 17.1495 7.72677 17.0063 7.20663 16.7198L3.1812 14.481C2.08815 13.8779 1.23633 12.423 1.23633 11.1717V6.91257C1.23633 5.66121 2.08815 4.21387 3.1812 3.60327L7.20663 1.37194C8.23938 0.799034 9.85256 0.799034 10.8853 1.37194L14.9107 3.61081C16.0038 4.21387 16.8556 5.66875 16.8556 6.9201V11.1792C16.8556 12.4306 16.0038 13.8779 14.9107 14.4885L10.8853 16.7198C10.3652 17.0063 9.70934 17.1495 9.04597 17.1495ZM9.04597 2.073C8.57106 2.073 8.10369 2.171 7.75693 2.35945L3.73149 4.59832C3.00782 4.99785 2.36707 6.08336 2.36707 6.91257V11.1717C2.36707 12.0009 3.00782 13.0864 3.73149 13.4935L7.75693 15.7323C8.44291 16.1168 9.64903 16.1168 10.335 15.7323L14.3604 13.4935C15.0841 13.0864 15.7249 12.0084 15.7249 11.1717V6.91257C15.7249 6.08336 15.0841 4.99785 14.3604 4.59078L10.335 2.35192C9.98825 2.171 9.52088 2.073 9.04597 2.073Z" fill="url(#paint2_linear_148_10121)"/>
<defs>
<linearGradient id="paint0_linear_148_10121" x1="16.2191" y1="5.04059" x2="2.3767" y2="11.2331" gradientUnits="userSpaceOnUse">
<stop stop-color="#7B61FF"/>
<stop offset="1" stop-color="#E42DC7"/>
</linearGradient>
<linearGradient id="paint1_linear_148_10121" x1="9.61023" y1="8.88763" x2="8.30704" y2="8.91626" gradientUnits="userSpaceOnUse">
<stop stop-color="#7B61FF"/>
<stop offset="1" stop-color="#E42DC7"/>
</linearGradient>
<linearGradient id="paint2_linear_148_10121" x1="16.8422" y1="0.942257" x2="-0.775936" y2="3.57055" gradientUnits="userSpaceOnUse">
<stop stop-color="#7B61FF"/>
<stop offset="1" stop-color="#E42DC7"/>
</linearGradient>
</defs>
</svg>
