<svg width="36" height="36" viewBox="0 0 36 36" fill="none" xmlns="http://www.w3.org/2000/svg">
<path d="M27.285 26.625H11.31C9.82499 26.625 8.39999 25.995 7.39499 24.9C6.38999 23.805 5.88 22.335 6 20.85L7.245 5.91C7.29 5.445 7.12499 4.99501 6.80999 4.65001C6.49499 4.30501 6.05999 4.125 5.59499 4.125H3C2.385 4.125 1.875 3.615 1.875 3C1.875 2.385 2.385 1.875 3 1.875H5.61001C6.70501 1.875 7.73999 2.33999 8.47499 3.13499C8.87999 3.58499 9.17999 4.11001 9.34499 4.69501H28.08C29.595 4.69501 30.99 5.295 32.01 6.375C33.015 7.47 33.525 8.895 33.405 10.41L32.595 21.66C32.43 24.405 30.03 26.625 27.285 26.625ZM9.42 6.92999L8.25 21.03C8.175 21.9 8.46 22.725 9.045 23.37C9.63 24.015 10.44 24.36 11.31 24.36H27.285C28.845 24.36 30.255 23.04 30.375 21.48L31.185 10.23C31.245 9.34501 30.96 8.50501 30.375 7.89001C29.79 7.26001 28.98 6.91498 28.095 6.91498H9.42V6.92999Z" fill="url(#paint0_linear_148_9907)"/>
<path d="M24.375 34.125C22.725 34.125 21.375 32.775 21.375 31.125C21.375 29.475 22.725 28.125 24.375 28.125C26.025 28.125 27.375 29.475 27.375 31.125C27.375 32.775 26.025 34.125 24.375 34.125ZM24.375 30.375C23.955 30.375 23.625 30.705 23.625 31.125C23.625 31.545 23.955 31.875 24.375 31.875C24.795 31.875 25.125 31.545 25.125 31.125C25.125 30.705 24.795 30.375 24.375 30.375Z" fill="url(#paint1_linear_148_9907)"/>
<path d="M12.375 34.125C10.725 34.125 9.375 32.775 9.375 31.125C9.375 29.475 10.725 28.125 12.375 28.125C14.025 28.125 15.375 29.475 15.375 31.125C15.375 32.775 14.025 34.125 12.375 34.125ZM12.375 30.375C11.955 30.375 11.625 30.705 11.625 31.125C11.625 31.545 11.955 31.875 12.375 31.875C12.795 31.875 13.125 31.545 13.125 31.125C13.125 30.705 12.795 30.375 12.375 30.375Z" fill="url(#paint2_linear_148_9907)"/>
<path d="M31.5 13.125H13.5C12.885 13.125 12.375 12.615 12.375 12C12.375 11.385 12.885 10.875 13.5 10.875H31.5C32.115 10.875 32.625 11.385 32.625 12C32.625 12.615 32.115 13.125 31.5 13.125Z" fill="url(#paint3_linear_148_9907)"/>
<defs>
<linearGradient id="paint0_linear_148_9907" x1="33.3951" y1="1.87499" x2="-1.61812" y2="8.78346" gradientUnits="userSpaceOnUse">
<stop stop-color="#7B61FF"/>
<stop offset="1" stop-color="#E42DC7"/>
</linearGradient>
<linearGradient id="paint1_linear_148_9907" x1="27.3698" y1="28.125" x2="20.6133" y2="29.1709" gradientUnits="userSpaceOnUse">
<stop stop-color="#7B61FF"/>
<stop offset="1" stop-color="#E42DC7"/>
</linearGradient>
<linearGradient id="paint2_linear_148_9907" x1="15.3698" y1="28.125" x2="8.61329" y2="29.1709" gradientUnits="userSpaceOnUse">
<stop stop-color="#7B61FF"/>
<stop offset="1" stop-color="#E42DC7"/>
</linearGradient>
<linearGradient id="paint3_linear_148_9907" x1="32.6075" y1="10.875" x2="24.668" y2="21.9362" gradientUnits="userSpaceOnUse">
<stop stop-color="#7B61FF"/>
<stop offset="1" stop-color="#E42DC7"/>
</linearGradient>
</defs>
</svg>
