<svg width="36" height="36" viewBox="0 0 36 36" fill="none" xmlns="http://www.w3.org/2000/svg">
<path d="M22.5 34.125H13.5C5.355 34.125 1.875 30.645 1.875 22.5V13.5C1.875 5.355 5.355 1.875 13.5 1.875H22.5C30.645 1.875 34.125 5.355 34.125 13.5V22.5C34.125 30.645 30.645 34.125 22.5 34.125ZM13.5 4.125C6.585 4.125 4.125 6.585 4.125 13.5V22.5C4.125 29.415 6.585 31.875 13.5 31.875H22.5C29.415 31.875 31.875 29.415 31.875 22.5V13.5C31.875 6.585 29.415 4.125 22.5 4.125H13.5Z" fill="url(#paint0_linear_148_10106)"/>
<path d="M15.8702 23.37C15.5702 23.37 15.2852 23.25 15.0752 23.04L10.8302 18.795C10.3952 18.36 10.3952 17.64 10.8302 17.205C11.2652 16.77 11.9852 16.77 12.4202 17.205L15.8702 20.655L23.5802 12.945C24.0152 12.51 24.7352 12.51 25.1702 12.945C25.6052 13.38 25.6052 14.1 25.1702 14.535L16.6652 23.04C16.4552 23.25 16.1702 23.37 15.8702 23.37Z" fill="url(#paint1_linear_148_10106)"/>
<defs>
<linearGradient id="paint0_linear_148_10106" x1="34.0972" y1="1.87499" x2="-2.21919" y2="7.49667" gradientUnits="userSpaceOnUse">
<stop stop-color="#7B61FF"/>
<stop offset="1" stop-color="#E42DC7"/>
</linearGradient>
<linearGradient id="paint1_linear_148_10106" x1="25.4835" y1="12.6188" x2="8.96571" y2="16.1843" gradientUnits="userSpaceOnUse">
<stop stop-color="#7B61FF"/>
<stop offset="1" stop-color="#E42DC7"/>
</linearGradient>
</defs>
</svg>
