<svg width="36" height="36" viewBox="0 0 36 36" fill="none" xmlns="http://www.w3.org/2000/svg">
<path d="M26.175 34.125C24.48 34.125 22.695 33.72 20.85 32.94C19.05 32.175 17.235 31.125 15.465 29.85C13.71 28.56 12.015 27.12 10.41 25.545C8.82 23.94 7.38 22.245 6.105 20.505C4.815 18.705 3.78 16.905 3.045 15.165C2.265 13.305 1.875 11.505 1.875 9.81C1.875 8.64 2.085 7.53 2.49 6.495C2.91 5.43 3.585 4.44 4.5 3.585C5.655 2.445 6.975 1.875 8.385 1.875C8.97 1.875 9.57 2.01 10.08 2.25C10.665 2.52 11.16 2.925 11.52 3.465L15 8.37C15.315 8.805 15.555 9.225 15.72 9.645C15.915 10.095 16.02 10.545 16.02 10.98C16.02 11.55 15.855 12.105 15.54 12.63C15.315 13.035 14.97 13.47 14.535 13.905L13.515 14.97C13.53 15.015 13.545 15.045 13.56 15.075C13.74 15.39 14.1 15.93 14.79 16.74C15.525 17.58 16.215 18.345 16.905 19.05C17.79 19.92 18.525 20.61 19.215 21.18C20.07 21.9 20.625 22.26 20.955 22.425L20.925 22.5L22.02 21.42C22.485 20.955 22.935 20.61 23.37 20.385C24.195 19.875 25.245 19.785 26.295 20.22C26.685 20.385 27.105 20.61 27.555 20.925L32.535 24.465C33.09 24.84 33.495 25.32 33.735 25.89C33.96 26.46 34.065 26.985 34.065 27.51C34.065 28.23 33.9 28.95 33.585 29.625C33.27 30.3 32.88 30.885 32.385 31.425C31.53 32.37 30.6 33.045 29.52 33.48C28.485 33.9 27.36 34.125 26.175 34.125ZM8.385 4.125C7.56 4.125 6.795 4.485 6.06 5.205C5.37 5.85 4.89 6.555 4.59 7.32C4.275 8.1 4.125 8.925 4.125 9.81C4.125 11.205 4.455 12.72 5.115 14.28C5.79 15.87 6.735 17.52 7.935 19.17C9.135 20.82 10.5 22.425 12 23.94C13.5 25.425 15.12 26.805 16.785 28.02C18.405 29.205 20.07 30.165 21.72 30.855C24.285 31.95 26.685 32.205 28.665 31.38C29.43 31.065 30.105 30.585 30.72 29.895C31.065 29.52 31.335 29.115 31.56 28.635C31.74 28.26 31.83 27.87 31.83 27.48C31.83 27.24 31.785 27 31.665 26.73C31.62 26.64 31.53 26.475 31.245 26.28L26.265 22.74C25.965 22.53 25.695 22.38 25.44 22.275C25.11 22.14 24.975 22.005 24.465 22.32C24.165 22.47 23.895 22.695 23.595 22.995L22.455 24.12C21.87 24.69 20.97 24.825 20.28 24.57L19.875 24.39C19.26 24.06 18.54 23.55 17.745 22.875C17.025 22.26 16.245 21.54 15.3 20.61C14.565 19.86 13.83 19.065 13.065 18.18C12.36 17.355 11.85 16.65 11.535 16.065L11.355 15.615C11.265 15.27 11.235 15.075 11.235 14.865C11.235 14.325 11.43 13.845 11.805 13.47L12.93 12.3C13.23 12 13.455 11.715 13.605 11.46C13.725 11.265 13.77 11.1 13.77 10.95C13.77 10.83 13.725 10.65 13.65 10.47C13.545 10.23 13.38 9.96 13.17 9.675L9.69 4.755C9.54 4.545 9.36 4.395 9.135 4.29C8.895 4.185 8.64 4.125 8.385 4.125ZM20.925 22.515L20.685 23.535L21.09 22.485C21.015 22.47 20.955 22.485 20.925 22.515Z" fill="url(#paint0_linear_148_10113)"/>
<path d="M27.75 14.625C27.135 14.625 26.625 14.115 26.625 13.5C26.625 12.96 26.085 11.835 25.185 10.875C24.3 9.93 23.325 9.375 22.5 9.375C21.885 9.375 21.375 8.865 21.375 8.25C21.375 7.635 21.885 7.125 22.5 7.125C23.955 7.125 25.485 7.905 26.82 9.33C28.065 10.665 28.875 12.3 28.875 13.5C28.875 14.115 28.365 14.625 27.75 14.625Z" fill="url(#paint1_linear_148_10113)"/>
<path d="M33 14.625C32.385 14.625 31.875 14.115 31.875 13.5C31.875 8.325 27.675 4.125 22.5 4.125C21.885 4.125 21.375 3.615 21.375 3C21.375 2.385 21.885 1.875 22.5 1.875C28.905 1.875 34.125 7.095 34.125 13.5C34.125 14.115 33.615 14.625 33 14.625Z" fill="url(#paint2_linear_148_10113)"/>
<defs>
<linearGradient id="paint0_linear_148_10113" x1="34.0373" y1="1.87499" x2="-2.21472" y2="7.47626" gradientUnits="userSpaceOnUse">
<stop stop-color="#7B61FF"/>
<stop offset="1" stop-color="#E42DC7"/>
</linearGradient>
<linearGradient id="paint1_linear_148_10113" x1="28.8685" y1="7.125" x2="20.4229" y2="8.43236" gradientUnits="userSpaceOnUse">
<stop stop-color="#7B61FF"/>
<stop offset="1" stop-color="#E42DC7"/>
</linearGradient>
<linearGradient id="paint2_linear_148_10113" x1="34.114" y1="1.875" x2="19.7564" y2="4.09752" gradientUnits="userSpaceOnUse">
<stop stop-color="#7B61FF"/>
<stop offset="1" stop-color="#E42DC7"/>
</linearGradient>
</defs>
</svg>
