<svg width="8" height="12" viewBox="0 0 8 12" fill="none" xmlns="http://www.w3.org/2000/svg">
<path d="M2.5768 7.904C2.52347 7.584 2.50747 7.30667 2.5288 7.072C2.5608 6.82667 2.61413 6.608 2.6888 6.416C2.77413 6.224 2.8808 6.05333 3.0088 5.904C3.1368 5.744 3.27547 5.584 3.4248 5.424C3.5848 5.25333 3.75547 5.08267 3.9368 4.912C4.1288 4.74133 4.31013 4.56533 4.4808 4.384C4.65147 4.20267 4.79013 4.016 4.8968 3.824C5.01413 3.62133 5.07813 3.408 5.0888 3.184C5.09947 2.8 4.9768 2.51733 4.7208 2.336C4.47547 2.15467 4.1608 2.05867 3.7768 2.048C3.57413 2.03733 3.3768 2.048 3.1848 2.08C3.00347 2.112 2.83813 2.176 2.6888 2.272C2.55013 2.35733 2.4328 2.48 2.3368 2.64C2.2408 2.8 2.18747 3.008 2.1768 3.264H0.0008C-0.00986667 2.784 0.0861334 2.32 0.2888 1.872C0.491467 1.424 0.7848 1.056 1.1688 0.768C1.4568 0.554667 1.80347 0.378667 2.2088 0.24C2.61413 0.0906665 3.1368 0.0106665 3.7768 0C4.2248 0 4.65147 0.0373332 5.0568 0.112C5.4728 0.186666 5.8408 0.330667 6.1608 0.544C6.52347 0.778666 6.81147 1.09867 7.0248 1.504C7.2488 1.89867 7.35547 2.38933 7.3448 2.976C7.3448 3.41333 7.2648 3.79733 7.1048 4.128C6.95547 4.45867 6.7368 4.784 6.4488 5.104C6.23547 5.328 6.02213 5.54133 5.8088 5.744C5.59547 5.936 5.39813 6.144 5.2168 6.368C5.04613 6.58133 4.90213 6.81067 4.7848 7.056C4.67813 7.30133 4.63013 7.584 4.6408 7.904H2.5768ZM3.6648 8.88C4.10213 8.88 4.44347 9.008 4.6888 9.264C4.93413 9.52 5.0568 9.856 5.0568 10.272C5.0568 10.688 4.93413 11.0187 4.6888 11.264C4.44347 11.4987 4.10213 11.616 3.6648 11.616C3.22747 11.616 2.8808 11.4987 2.6248 11.264C2.37947 11.0293 2.2568 10.6987 2.2568 10.272C2.2568 9.856 2.37947 9.52 2.6248 9.264C2.8808 9.008 3.22747 8.88 3.6648 8.88Z" fill="white"/>
</svg>
