<svg width="63" height="31" viewBox="0 0 63 31" fill="none" xmlns="http://www.w3.org/2000/svg">
<path fill-rule="evenodd" clip-rule="evenodd" d="M7.61604 21.0685C5.03026 21.0685 3.8534 21.7858 3.38928 23.2871L1.91406 28.058H52.171C54.7568 28.058 55.9337 27.3407 56.3978 25.8394L57.873 21.0685H7.61604ZM13.6661 14.4127H11.1798C7.30111 14.4127 10.1189 6.12209 13.3843 6.12209H17.3127C17.9426 6.12209 19.0531 6.23886 19.6001 4.67082L20.4455 2.23535H15.0584C12.1412 2.23535 9.87031 3.26959 8.22933 5.00445C5.39492 7.97372 4.43354 12.6111 5.11314 14.8297C5.75958 16.8815 7.51659 18.2327 10.2681 18.2661L12.4064 18.2828H15.0419L15.6883 16.331C16.169 14.9465 15.0916 14.4127 13.6661 14.4127ZM43.933 10.9764L44.7452 8.32403H36.0762C34.6341 8.32403 33.9877 8.72438 33.739 9.55844L32.9268 12.2108H41.5958C43.0379 12.2108 43.6844 11.8104 43.933 10.9764ZM31.634 15.6471L30.8218 18.2994H39.4908C40.9162 18.2994 41.5793 17.8991 41.8279 17.065L42.6401 14.4127H33.9711C32.5456 14.4127 31.8992 14.8131 31.634 15.6471ZM45.9552 4.90436L46.7674 2.25203H38.0984C36.6563 2.25203 36.0099 2.65238 35.7613 3.48645L34.9491 6.13878H43.6181C45.0435 6.13878 45.69 5.73843 45.9552 4.90436ZM32.8605 5.43816C32.4959 2.96933 31.1864 2.25203 28.0039 2.25203H22.2025L18.8211 12.2108H20.9593C22.2356 12.2108 22.8821 12.2274 23.5617 10.3925L24.9706 6.12209H27.1254C28.9653 6.12209 28.5509 8.44079 27.6227 10.6928C26.7939 12.6778 25.3518 14.4294 23.6114 14.4294H20.0145C18.5725 14.4294 17.9094 14.8297 17.6442 15.6638L16.7491 18.3161H19.3847L21.9704 18.2994C24.2579 18.2828 26.1309 18.1159 28.3189 16.1309C30.6394 14.0123 33.3247 8.57424 32.8605 5.43816ZM62.0003 2.23535H56.9779L52.2539 7.28978C51.7069 7.87363 51.1433 8.45748 50.5963 9.14141H50.5466L52.9003 2.23535H48.8062L43.2865 18.2994H47.3807L49.1377 13.245L50.961 11.6936L52.4031 16.2643C52.8506 17.6822 53.3147 18.2994 54.3093 18.2994H57.442L54.2264 9.3249L62.0003 2.23535Z" fill="#00B33C"/>
<path d="M7.38362 25.0387V26.3566H6.6543V22.7034H8.09637C8.51075 22.7034 8.84226 22.8035 9.07432 23.0203C9.30638 23.2372 9.43898 23.5207 9.43898 23.8711C9.43898 24.2214 9.32295 24.5049 9.07432 24.7218C8.84226 24.9387 8.51075 25.0387 8.09637 25.0387H7.38362ZM7.38362 24.4716H8.09637C8.29527 24.4716 8.44445 24.4215 8.56048 24.3048C8.65993 24.188 8.70966 24.0545 8.70966 23.8877C8.70966 23.7042 8.65993 23.5708 8.56048 23.454C8.46103 23.3373 8.29527 23.2872 8.09637 23.2872H7.38362V24.4716ZM11.5109 25.5725H10.2346L9.98597 26.3566H9.25665L10.4998 22.7034H11.2457L12.4889 26.3566H11.7596L11.5109 25.5725ZM10.4169 24.9887H11.3286L10.8811 23.5541H10.8645L10.4169 24.9887ZM15.1575 23.2705H13.5497V23.9878H14.1796C14.594 23.9878 14.9255 24.1046 15.1741 24.3215C15.4227 24.5383 15.5388 24.8219 15.5388 25.1722C15.5388 25.5225 15.4227 25.8061 15.1741 26.0229C14.9255 26.2398 14.594 26.3566 14.1796 26.3566H12.7872V22.7034H15.1575V23.2705ZM13.5497 24.555V25.7894H14.1796C14.3785 25.7894 14.5442 25.7227 14.6437 25.6059C14.7431 25.4891 14.8094 25.339 14.8094 25.1555C14.8094 24.9887 14.7597 24.8386 14.6437 24.7218C14.5277 24.605 14.3785 24.5383 14.1796 24.5383H13.5497V24.555ZM18.9533 24.8553C18.9533 25.3056 18.8207 25.6726 18.5389 25.9729C18.2572 26.2732 17.8925 26.4066 17.445 26.4066C16.9974 26.4066 16.6328 26.2565 16.351 25.9729C16.0692 25.6893 15.9366 25.3056 15.9366 24.8553V24.2047C15.9366 23.7543 16.0692 23.3873 16.351 23.087C16.6328 22.7868 16.9974 22.6533 17.445 22.6533C17.8925 22.6533 18.2572 22.8035 18.5389 23.087C18.8207 23.3706 18.9699 23.7543 18.9699 24.2047V24.8553H18.9533ZM18.224 24.2047C18.224 23.9211 18.1577 23.6876 18.0085 23.5041C17.8593 23.3206 17.677 23.2372 17.4284 23.2372C17.1797 23.2372 16.9808 23.3206 16.8482 23.5041C16.7156 23.6876 16.6493 23.9211 16.6493 24.2047V24.8719C16.6493 25.1555 16.7156 25.4057 16.8482 25.5725C16.9808 25.756 17.1797 25.8395 17.4284 25.8395C17.677 25.8395 17.8759 25.756 18.0085 25.5725C18.1411 25.3891 18.224 25.1555 18.224 24.8719V24.2047ZM21.9369 23.2705H20.9092V26.3566H20.1799V23.2705H19.1522V22.7034H21.9203V23.2705H21.9369ZM24.042 25.5725H22.7657L22.5171 26.3566H21.7877L23.0309 22.7034H23.7768L25.02 26.3566H24.2906L24.042 25.5725ZM22.948 24.9887H23.8597L23.4121 23.5541H23.3956L22.948 24.9887ZM27.6057 24.7552H26.0974V25.7894H27.8544V26.3566H25.3681V22.7034H27.8544V23.2705H26.0974V24.188H27.6057V24.7552ZM29.2467 22.7034L30.1749 25.3891H30.1915L31.1198 22.7034H32.0646V26.3566H31.3352V25.2723L31.4015 23.6542H31.385L30.407 26.3566H29.9263L28.9649 23.6709H28.9484L29.0147 25.2723V26.3566H28.2853V22.7034H29.2467ZM34.0205 26.3566V22.7034H35.2471C35.678 22.7034 36.0095 22.7868 36.2416 22.9536C36.4736 23.1204 36.6062 23.3706 36.6062 23.7042C36.6062 23.8711 36.5565 24.0212 36.4736 24.1546C36.3908 24.2881 36.2582 24.3882 36.0924 24.4549C36.3079 24.5049 36.4736 24.605 36.5897 24.7552C36.7057 24.9053 36.7554 25.0888 36.7554 25.289C36.7554 25.6393 36.6394 25.9062 36.4073 26.0897C36.1753 26.2732 35.8604 26.3566 35.4294 26.3566H34.0205ZM34.7498 24.238H35.2802C35.4791 24.238 35.6283 24.2047 35.7277 24.1213C35.8272 24.0379 35.8769 23.9211 35.8769 23.771C35.8769 23.6042 35.8272 23.4707 35.7112 23.404C35.6117 23.3206 35.446 23.2872 35.2471 23.2872H34.7498V24.238ZM34.7498 24.7385V25.7894H35.4128C35.6117 25.7894 35.7443 25.7394 35.8604 25.656C35.9764 25.5725 36.0095 25.4391 36.0095 25.289C36.0095 25.1055 35.9598 24.972 35.8769 24.8719C35.7941 24.7718 35.6614 24.7385 35.4625 24.7385H34.7498ZM40.0374 25.1055C40.054 25.5058 39.9379 25.8228 39.6893 26.0563C39.4407 26.2898 39.1092 26.4066 38.6616 26.4066C38.2307 26.4066 37.866 26.2732 37.6008 25.9896C37.3356 25.706 37.1864 25.339 37.1864 24.9053V24.188C37.1864 23.7376 37.319 23.3873 37.5842 23.1037C37.8494 22.8201 38.1975 22.67 38.6285 22.67C39.076 22.67 39.4241 22.7868 39.6727 23.0203C39.9214 23.2538 40.054 23.5708 40.0374 23.9711V23.9878H39.3246C39.3246 23.7543 39.2749 23.5708 39.1589 23.4373C39.0429 23.3039 38.8605 23.2538 38.6285 23.2538C38.413 23.2538 38.2307 23.3373 38.1146 23.5207C37.982 23.7042 37.9157 23.9211 37.9157 24.2047V24.9387C37.9157 25.2222 37.982 25.4391 38.1146 25.6226C38.2472 25.8061 38.4296 25.8895 38.6616 25.8895C38.8937 25.8895 39.0594 25.8228 39.1589 25.706C39.2749 25.5892 39.3246 25.4057 39.3246 25.1555H40.0374V25.1055ZM42.7889 24.7552H41.2805V25.7894H43.0375V26.3566H40.5512V22.7034H43.0375V23.2705H41.2805V24.188H42.7889V24.7552ZM45.8554 23.2705H44.2144V26.3566H43.4851V22.7034H45.8554V23.2705ZM49.2202 27.2574H48.5572V26.3566H46.3361V27.2574H45.6731L45.6233 25.7894H45.9051C46.0377 25.6726 46.1537 25.5058 46.2532 25.2556C46.3526 25.0221 46.4024 24.6551 46.419 24.188L46.5184 22.6867H48.8721V25.7727H49.3031L49.2202 27.2574ZM47.1151 24.2047C47.0986 24.5717 47.0488 24.8886 46.9825 25.1388C46.9162 25.4057 46.8168 25.6226 46.7007 25.7894H48.1262V23.2705H47.1814L47.1151 24.2047ZM51.69 25.5725H50.4137L50.165 26.3566H49.4357L50.6789 22.7034H51.4248L52.6679 26.3566H51.9386L51.69 25.5725ZM50.596 24.9887H51.5076L51.0601 23.5541H51.0435L50.596 24.9887ZM53.7288 25.0888H52.9994V22.7034H53.7288V25.0888ZM53.7288 26.3566H52.9994V25.7227H53.7288V26.3566Z" fill="white"/>
</svg>
