<svg width="24" height="24" viewBox="0 0 24 24" fill="none" xmlns="http://www.w3.org/2000/svg">
<path d="M8.99994 3.624C7.61325 5.00873 6.7808 6.85277 6.65942 8.8087C6.53804 10.7646 7.1361 12.6974 8.34094 14.243L3.02294 19.561C2.84079 19.7496 2.73999 20.0022 2.74227 20.2644C2.74455 20.5266 2.84972 20.7774 3.03512 20.9628C3.22053 21.1482 3.47134 21.2534 3.73354 21.2557C3.99574 21.258 4.24834 21.1572 4.43694 20.975L9.75494 15.657C11.3698 16.9153 13.4038 17.5102 15.4422 17.3204C17.4806 17.1306 19.3697 16.1703 20.7245 14.6355C22.0792 13.1006 22.7974 11.1068 22.7327 9.06066C22.6679 7.01449 21.825 5.07009 20.3759 3.624C19.6291 2.8768 18.7424 2.28406 17.7664 1.87966C16.7905 1.47525 15.7444 1.2671 14.6879 1.2671C13.6315 1.2671 12.5854 1.47525 11.6095 1.87966C10.6335 2.28406 9.74677 2.8768 8.99994 3.624ZM18.9599 5.038C19.9485 6.02657 20.5637 7.32732 20.7007 8.71863C20.8378 10.1099 20.4882 11.5057 19.7115 12.6682C18.9348 13.8306 17.7791 14.6878 16.4413 15.0937C15.1035 15.4996 13.6663 15.4291 12.3747 14.8942C11.083 14.3592 10.0168 13.393 9.35766 12.1601C8.69851 10.9272 8.48724 9.50393 8.75984 8.13272C9.03243 6.76152 9.77202 5.52724 10.8526 4.6402C11.9332 3.75315 13.2879 3.26821 14.6859 3.268C15.4804 3.26526 16.2674 3.4203 17.0015 3.72415C17.7355 4.02799 18.4019 4.47458 18.9619 5.038L18.9599 5.038Z" fill="#212324"/>
</svg>
