<svg width="24" height="24" viewBox="0 0 24 24" fill="none" xmlns="http://www.w3.org/2000/svg">
<path fill-rule="evenodd" clip-rule="evenodd" d="M4.16866 12.0269C8.73205 10.0512 11.775 8.74867 13.2976 8.11936C17.6448 6.32254 18.5481 6.01042 19.1369 6.00011C19.2664 5.99784 19.5559 6.02973 19.7435 6.18096C19.9018 6.30866 19.9454 6.48116 19.9663 6.60223C19.9871 6.7233 20.0131 6.9991 19.9924 7.2146C19.7569 9.6743 18.7375 15.6433 18.2189 18.3983C17.9995 19.564 17.5674 19.9548 17.1492 19.9931C16.2401 20.0762 15.5498 19.3961 14.6694 18.8225C13.2916 17.9251 12.5133 17.3664 11.176 16.4907C9.63045 15.4786 10.6323 14.9223 11.5131 14.0132C11.7436 13.7753 15.7489 10.1551 15.8264 9.82668C15.8361 9.7856 15.8451 9.6325 15.7536 9.55166C15.6621 9.47081 15.527 9.49846 15.4295 9.52045C15.2913 9.55161 13.0904 10.9972 8.82663 13.8573C8.2019 14.2836 7.63604 14.4913 7.12904 14.4804C6.57012 14.4684 5.49499 14.1664 4.69573 13.9082C3.71541 13.5915 2.93627 13.4241 3.00412 12.8863C3.03946 12.6062 3.42764 12.3197 4.16866 12.0269Z" fill="#273E4F"/>
</svg>
