<svg width="138" height="138" viewBox="0 0 138 138" fill="none" xmlns="http://www.w3.org/2000/svg">
<g opacity="0.2">
<path fill-rule="evenodd" clip-rule="evenodd" d="M23.9694 69.1547C50.2089 57.7943 67.7061 50.3048 76.4608 46.6863C101.457 36.3546 106.651 34.5599 110.037 34.5006C110.781 34.4876 112.446 34.671 113.525 35.5405C114.435 36.2748 114.686 37.2667 114.806 37.9628C114.926 38.659 115.075 40.2448 114.956 41.4839C113.602 55.6272 107.74 89.9492 104.759 105.79C103.497 112.493 101.012 114.74 98.6073 114.96C93.3803 115.438 89.4111 111.527 84.3485 108.23C76.4265 103.069 71.9511 99.8569 64.2615 94.8213C55.3747 89.0019 61.1356 85.8034 66.2001 80.5762C67.5256 79.2082 90.5558 58.3918 91.0016 56.5034C91.0573 56.2672 91.1091 55.3869 90.5828 54.922C90.0565 54.4572 89.2797 54.6161 88.7192 54.7426C87.9246 54.9218 75.2692 63.2341 50.7528 79.6795C47.1606 82.1307 43.9069 83.325 40.9916 83.2624C37.7778 83.1934 31.5958 81.4567 27.0001 79.9722C21.3632 78.1514 16.8832 77.1887 17.2733 74.0964C17.4765 72.4857 19.7085 70.8385 23.9694 69.1547Z" fill="white"/>
</g>
</svg>
