<svg width="24" height="24" viewBox="0 0 24 24" fill="none" xmlns="http://www.w3.org/2000/svg">
<path fill-rule="evenodd" clip-rule="evenodd" d="M3 8C3 7.44772 3.44772 7 4 7H20C20.5523 7 21 7.44772 21 8V18C21 19.6569 19.6569 21 18 21H6C4.34315 21 3 19.6569 3 18V8ZM5 9V18C5 18.5523 5.44772 19 6 19H18C18.5523 19 19 18.5523 19 18V9H5Z" fill="#242328"/>
<path fill-rule="evenodd" clip-rule="evenodd" d="M7.29292 3.29289C7.48046 3.10536 7.73481 3 8.00003 3H16C16.2652 3 16.5196 3.10536 16.7071 3.29289L20.7071 7.29289C20.9931 7.57889 21.0787 8.00901 20.9239 8.38268C20.7691 8.75636 20.4045 9 20 9H4.00003C3.59557 9 3.23093 8.75636 3.07615 8.38268C2.92137 8.00901 3.00692 7.57889 3.29292 7.29289L7.29292 3.29289ZM8.41424 5L6.41424 7H17.5858L15.5858 5H8.41424Z" fill="#242328"/>
<path fill-rule="evenodd" clip-rule="evenodd" d="M7 12C7 11.4477 7.44772 11 8 11H12C12.5523 11 13 11.4477 13 12C13 12.5523 12.5523 13 12 13H8C7.44772 13 7 12.5523 7 12Z" fill="#242328"/>
</svg>
