<svg width="70" height="49" viewBox="0 0 70 49" fill="none" xmlns="http://www.w3.org/2000/svg">
<path fill-rule="evenodd" clip-rule="evenodd" d="M21.7818 33.1956H17.4351L14.1756 20.8111C14.0209 20.2414 13.6924 19.7378 13.2092 19.5004C12.0034 18.9039 10.6746 18.4291 9.22498 18.1897V17.7129H16.2271C17.1935 17.7129 17.9183 18.4291 18.0391 19.261L19.7303 28.1943L24.0748 17.7129H28.3007L21.7818 33.1956ZM30.7166 33.1956H26.6116L29.9918 17.7129H34.0969L30.7166 33.1956ZM39.4078 22.0017C39.5286 21.1678 40.2534 20.691 41.099 20.691C42.4278 20.5713 43.8753 20.8107 45.0833 21.4052L45.8081 18.0717C44.6001 17.5949 43.2713 17.3555 42.0654 17.3555C38.0811 17.3555 35.182 19.5001 35.182 22.4765C35.182 24.7408 37.2356 25.9297 38.6851 26.6459C40.2534 27.3601 40.8574 27.8369 40.7366 28.5511C40.7366 29.6223 39.5286 30.0991 38.3227 30.0991C36.8732 30.0991 35.4236 29.742 34.0969 29.1455L33.3721 32.4811C34.8217 33.0755 36.39 33.315 37.8396 33.315C42.307 33.4326 45.0833 31.2901 45.0833 28.0742C45.0833 24.0245 39.4078 23.7871 39.4078 22.0017ZM59.4499 33.1956L56.1904 17.7129H52.6893C51.9645 17.7129 51.2397 18.1897 50.9981 18.9039L44.9624 33.1956H49.1883L50.0317 30.9333H55.224L55.7072 33.1956H59.4499ZM53.2933 21.8818L54.4992 27.717H51.1189L53.2933 21.8818Z" fill="#8E8E8E"/>
</svg>
