<svg width="24" height="24" viewBox="0 0 24 24" fill="none" xmlns="http://www.w3.org/2000/svg">
<path d="M5.37479 12.0667C5.37433 13.3533 5.71093 14.6095 6.35097 15.7169L5.31348 19.5004L9.19 18.4852C10.2581 19.0665 11.4606 19.3734 12.6844 19.3738H12.6876C16.7178 19.3738 19.9983 16.0982 20 12.0724C20.0008 10.1214 19.2408 8.28715 17.8601 6.90691C16.4796 5.52687 14.6436 4.76644 12.6872 4.76552C8.65679 4.76552 5.37635 8.04067 5.37461 12.0667L5.37479 12.0667ZM12.6875 19.3737H12.6875H12.6875C12.6874 19.3737 12.6873 19.3737 12.6875 19.3737Z" fill="#273E4F"/>
<path fill-rule="evenodd" clip-rule="evenodd" d="M10.7955 8.90222C10.6537 8.5874 10.5045 8.5811 10.3696 8.57556C10.2593 8.57087 10.133 8.57118 10.0069 8.57118C9.88067 8.57118 9.67562 8.61849 9.50223 8.80767C9.32868 8.99685 8.83972 9.45415 8.83972 10.3842C8.83972 11.3143 9.51804 12.2131 9.61254 12.3393C9.7072 12.4653 10.9219 14.435 12.8456 15.1927C14.4445 15.8224 14.7698 15.6972 15.1168 15.6656C15.4639 15.6342 16.2367 15.2085 16.3943 14.767C16.5521 14.3257 16.5521 13.9473 16.5048 13.8683C16.4575 13.7895 16.3312 13.7422 16.142 13.6477C15.9527 13.5532 15.0222 13.0958 14.8487 13.0327C14.6752 12.9697 14.549 12.9382 14.4227 13.1275C14.2966 13.3165 13.9341 13.7422 13.8236 13.8683C13.7132 13.9946 13.6028 14.0104 13.4135 13.9158C13.2242 13.821 12.6146 13.6216 11.8914 12.9776C11.3288 12.4766 10.9489 11.8578 10.8385 11.6685C10.7281 11.4795 10.8267 11.3771 10.9216 11.2828C11.0066 11.1981 11.1109 11.0621 11.2056 10.9518C11.3 10.8414 11.3315 10.7626 11.3946 10.6365C11.4578 10.5103 11.4262 10.3999 11.3789 10.3054C11.3315 10.2108 10.9637 9.27598 10.7954 8.90217" fill="white"/>
</svg>
