<svg width="24" height="24" viewBox="0 0 24 24" fill="none" xmlns="http://www.w3.org/2000/svg">
<path d="M16.707 8.70708L13.414 12.0001L16.707 15.2931C16.8025 15.3853 16.8787 15.4957 16.9311 15.6177C16.9835 15.7397 17.0111 15.8709 17.0123 16.0037C17.0134 16.1365 16.9881 16.2681 16.9378 16.391C16.8876 16.5139 16.8133 16.6256 16.7194 16.7195C16.6255 16.8134 16.5139 16.8876 16.391 16.9379C16.2681 16.9882 16.1364 17.0135 16.0036 17.0123C15.8708 17.0112 15.7396 16.9836 15.6176 16.9312C15.4956 16.8788 15.3853 16.8026 15.293 16.7071L12 13.4141L8.70702 16.7071C8.61477 16.8026 8.50443 16.8788 8.38242 16.9312C8.26042 16.9836 8.1292 17.0112 7.99642 17.0123C7.86364 17.0135 7.73196 16.9882 7.60907 16.9379C7.48617 16.8876 7.37452 16.8134 7.28062 16.7195C7.18673 16.6256 7.11248 16.5139 7.0622 16.391C7.01192 16.2681 6.98662 16.1365 6.98777 16.0037C6.98892 15.8709 7.01651 15.7397 7.06892 15.6177C7.12133 15.4957 7.19751 15.3853 7.29302 15.2931L10.586 12.0001L7.29302 8.70708C7.19751 8.61483 7.12133 8.50449 7.06892 8.38249C7.01651 8.26048 6.98892 8.12926 6.98777 7.99648C6.98662 7.8637 7.01192 7.73202 7.0622 7.60913C7.11248 7.48623 7.18673 7.37458 7.28062 7.28069C7.37452 7.18679 7.48617 7.11254 7.60907 7.06226C7.73196 7.01198 7.86364 6.98668 7.99642 6.98783C8.1292 6.98898 8.26042 7.01657 8.38242 7.06898C8.50443 7.12139 8.61477 7.19757 8.70702 7.29308L12 10.5861L15.293 7.29308C15.3853 7.19757 15.4956 7.12139 15.6176 7.06898C15.7396 7.01657 15.8708 6.98898 16.0036 6.98783C16.1364 6.98668 16.2681 7.01198 16.391 7.06226C16.5139 7.11254 16.6255 7.18679 16.7194 7.28069C16.8133 7.37458 16.8876 7.48623 16.9378 7.60913C16.9881 7.73202 17.0134 7.8637 17.0123 7.99648C17.0111 8.12926 16.9835 8.26048 16.9311 8.38249C16.8787 8.50449 16.8025 8.61483 16.707 8.70708Z" fill="#212324"/>
</svg>
